<svg width="1280" height="720" xmlns="http://www.w3.org/2000/svg" xmlns:xlink="http://www.w3.org/1999/xlink" overflow="hidden"><defs><clipPath id="clip0"><rect x="0" y="0" width="1280" height="720"/></clipPath><clipPath id="clip1"><rect x="553" y="644" width="217" height="56"/></clipPath><clipPath id="clip2"><rect x="553" y="644" width="217" height="56"/></clipPath><clipPath id="clip3"><rect x="553" y="644" width="217" height="56"/></clipPath><clipPath id="clip4"><rect x="553" y="644" width="217" height="56"/></clipPath></defs><g clip-path="url(#clip0)"><rect x="0" y="0" width="1280" height="720"/><rect x="0" y="0" width="1280" height="720" fill="#404040"/><path d="M0 0 903.668 0 1237 720 0 720Z" fill="#000000" fill-rule="evenodd" fill-opacity="0.298039"/><path d="M0 0 42.5455 0 376 720 0 720Z" fill="#000000" fill-rule="evenodd" fill-opacity="0.298039"/><text fill="#FFFFFF" font-family="Tw Cen MT Condensed Extra Bold,Tw Cen MT Condensed Extra Bold_MSFontService,sans-serif" font-weight="800" font-stretch="condensed" font-size="53" transform="translate(97.0543 91)">Contacts :<tspan font-family="Calibri,Calibri_MSFontService,sans-serif" font-weight="400" font-stretch="normal" font-size="35" x="252.029" y="148">Notre adresse email : </tspan><tspan fill="#0563C1" font-family="Calibri,Calibri_MSFontService,sans-serif" font-weight="400" font-stretch="normal" font-size="35" x="559.276" y="148">contact@ltg</tspan><tspan fill="#0563C1" font-family="Calibri,Calibri_MSFontService,sans-serif" font-weight="400" font-stretch="normal" font-size="35" x="731.082" y="148">-</tspan><tspan fill="#0563C1" font-family="Calibri,Calibri_MSFontService,sans-serif" font-weight="400" font-stretch="normal" font-size="35" x="741.749" y="148">tech.fr</tspan></text><path d="M656.67 243.147 793.67 243.147 930.67 243.147 930.67 245.147 793.67 245.147 656.67 245.147Z" fill="#0563C1" fill-rule="evenodd"/><text fill="#FFFFFF" font-family="Calibri,Calibri_MSFontService,sans-serif" font-weight="400" font-size="35" transform="translate(371.337 281)">Notre téléphone : +33 (0) 787 357 897</text><g clip-path="url(#clip1)"><g clip-path="url(#clip2)"><g clip-path="url(#clip3)"><g clip-path="url(#clip4)"><path d="M1127.39 611.48 1335.77 611.48 1335.77 653.874 1127.39 653.874Z" transform="matrix(1 0 0 1.01215 -568.646 28)"/><text fill="#FFFFFF" font-family="Calibri,Calibri_MSFontService,sans-serif" font-weight="700" font-size="36" transform="matrix(0.718543 0 0 0.727273 568.822 677)">/<tspan font-size="36" x="23.75" y="0">www</tspan><tspan font-size="36" x="104.75" y="0">.</tspan><tspan font-size="36" x="114.75" y="0">ltg</tspan><tspan font-size="36" x="150.08" y="0">-</tspan><tspan font-size="36" x="161.08" y="0">tech</tspan>.fr</text></g></g></g></g></g></svg>